<svg class="h-[70px] md:h-[100px]"
	xmlns="http://www.w3.org/2000/svg"
	xmlns:xlink="http://www.w3.org/1999/xlink" version="1.1" viewBox="0 0 444.24 307.82">
	<defs>
		<style>
      .cls-1 {
        fill: #fff;
      }

      .cls-2 {
        fill: #376540;
      }

      .cls-3 {
        fill: #ababab;
      }
    </style>
	</defs>
	<g>
		<g id="Ebene_1">
			<path class="cls-2" d="M292.78,151.45c-.53-4.73-.15-9.47-.22-14.21-.07-4.41.08-8.83-.06-13.24-.06-1.98.55-2.51,2.52-2.51,17.5.07,34.99.04,52.49.04,22.33,0,44.66.03,66.98-.05,2.17,0,2.82.48,2.77,2.73-.18,9.07-.15,18.15-.2,27.22-41.43,0-82.85.01-124.28.02Z"></path>
			<path class="cls-3" d="M162.41,164.39c-.52-5.06-.13-10.14-.21-15.21-.03-1.71,1.35-1.14,2.21-1.14,7.91-.04,15.84-.3,23.74.05,9.28.41,18.14-.96,26.94-3.91,8.74-2.94,17.7-5.19,26.57-7.75.81-.31,1.65-.16,2.47-.16,13.38,0,26.76-.01,40.13,0,.81,0,1.66-.23,2.44.24-.02,9.29.31,18.59-.17,27.88-20.14-.02-40.29-.05-60.43-.05-21.23,0-42.45.03-63.68.05Z"></path>
			<path class="cls-3" d="M286.54,51.13c.45,5.4.08,10.8.2,16.21.02.96-.4,1.36-1.34,1.32-.58-.03-1.17,0-1.75,0-39.46,0-78.93-.02-118.39.06-2.51,0-3.32-.57-3.15-3.14.32-4.81-.21-9.64.27-14.45,17.74.02,35.47.05,53.21.05,23.65,0,47.29-.03,70.94-.05Z"></path>
			<path class="cls-2" d="M355.2,73.69c19.66,0,39.31.06,58.97-.07,2.65-.02,3.11.78,3.09,3.2-.12,12.4-.09,24.81-.02,37.21.01,1.89-.39,2.53-2.44,2.53-39.9-.07-79.79-.06-119.69,0-2.09,0-2.64-.58-2.62-2.64.09-12.4.11-24.81,0-37.21-.02-2.36.53-3.09,3-3.08,19.91.1,39.81.06,59.72.06Z"></path>
			<path class="cls-2" d="M355.21,38.44c19.74,0,39.47.04,59.21-.06,2.37-.01,2.87.72,2.84,2.93-.13,8.07-.15,16.15,0,24.22.05,2.44-.47,3.2-3.09,3.19-32.4-.1-64.79-.07-97.19-.07-7.33,0-14.66-.04-21.99.03-1.72.02-2.53-.26-2.5-2.28.11-8.57.11-17.15,0-25.72-.03-2.01.77-2.29,2.5-2.28,20.07.05,40.14.03,60.21.03Z"></path>
			<path class="cls-3" d="M286.68,88.54c.02,8.58-.02,17.15.12,25.73.03,1.99-.67,2.29-2.44,2.28-18.75-.06-37.49-.04-56.24-.04-21.08,0-42.16-.03-63.23.05-2.17,0-2.89-.47-2.77-2.73.2-3.82.14-7.66.02-11.49-.06-1.77.53-2.25,2.26-2.24,11.5.07,22.99-.05,34.49.07,4.72.05,8.94-1.79,13.31-3.02,9.12-2.57,18.2-5.3,27.29-7.99,1.61-.47,3.22-.7,4.91-.69,13.91.02,27.83-.01,41.74-.03.34-.02.45-.03.54.08Z"></path>
			<path class="cls-3" d="M286.17,83.56c-14.65-.02-29.31-.22-43.96.04-4.63.08-8.97,2.33-13.44,3.57-7.76,2.17-15.48,4.5-23.2,6.83-2.57.78-5.14,1.17-7.84,1.15-11.07-.07-22.15-.07-33.22.01-1.89.01-2.4-.53-2.36-2.39.12-5.41.15-10.82,0-16.23-.07-2.26.52-2.92,2.87-2.92,34.89.08,69.78.05,104.67.05,5,0,9.99.05,14.99-.03,1.6-.03,2.23.41,2.13,2.11-.16,2.57-.09,5.16-.12,7.73-.04.1-.16.06-.49.06Z"></path>
			<path class="cls-3" d="M240.69,131.41c-12.6,3.69-25.2,7.39-37.79,11.09-1.05.31-2.08.5-3.18.5-11.74-.02-23.48-.05-35.22.03-1.87.01-2.41-.48-2.36-2.36.13-5.57.14-11.15,0-16.73-.05-2.04.63-2.46,2.54-2.45,32.56.05,65.11.04,97.67.04,7.41,0,14.82.06,22.23-.04,1.78-.02,2.31.53,2.21,2.26-.14,2.41-.06,4.82-.08,7.24-.86.48-1.79.23-2.68.23-13.53.02-27.07,0-40.6.02-.91,0-1.83-.15-2.72.16Z"></path>
			<path class="cls-3" d="M156.23,121.51c-.01,6.92-.03,13.85-.04,20.77,0,0,.05.03.05.03-.88.79-1.99.72-3.07.72-39.45,0-78.91,0-118.36,0-1.08,0-2.19.06-3.03-.8,0-6.88,0-13.76,0-20.64,1.3-1.25,2.96-.89,4.5-.89,23.4-.02,46.79-.02,70.19-.02,15.15,0,30.31,0,45.46.01,1.47,0,3.03-.26,4.3.81Z"></path>
			<path class="cls-3" d="M94.03,73.96c19.82,0,39.63.04,59.45-.06,2.36-.01,2.93.71,2.86,2.94-.15,5.24-.13,10.49,0,15.73.05,1.95-.5,2.53-2.5,2.52-15.9-.08-31.8-.05-47.71-.05-23.81,0-47.62-.04-71.43.06-2.49.01-3.05-.7-2.97-3.06.18-5.07.17-10.15,0-15.23-.07-2.24.5-2.94,2.85-2.92,19.81.1,39.63.06,59.45.06Z"></path>
			<path class="cls-3" d="M93.94,68.58c-19.82,0-39.64-.04-59.45.05-2.2,0-2.87-.53-2.76-2.76.19-3.99.17-7.99,0-11.98-.08-2.03.62-2.48,2.54-2.48,19.4.06,38.8.04,58.2.04,20.32,0,40.64.04,60.95-.05,2.28,0,3.02.58,2.91,2.9-.19,3.9-.18,7.83,0,11.73.1,2.16-.68,2.59-2.69,2.59-19.9-.07-39.8-.04-59.7-.04Z"></path>
			<path class="cls-3" d="M31.77,100.54c.83-.04,1.66-.11,2.49-.11,39.65,0,79.29.02,118.94-.06,2.56,0,3.28.63,3.15,3.06-.23,4.15-.09,8.32-.11,12.49-.9.77-2.02.66-3.09.66-39.44,0-78.88.01-118.33,0-1.07,0-2.19.11-3.05-.74,0-5.09,0-10.19,0-15.28Z"></path>
			<path class="cls-3" d="M156.23,148.03c.02,4.4-.1,8.81.11,13.2.11,2.35-.68,2.87-2.93,2.87-35.55-.07-71.09-.04-106.64-.05-4.99,0-9.98-.07-14.98-.11,0-5.27-.01-10.55-.02-15.82,1.31-1.26,2.97-.9,4.51-.91,24.39-.02,48.79-.02,73.18-.02,14.15,0,28.31,0,42.46.01,1.47,0,3.03-.27,4.3.82Z"></path>
			<g>
				<path class="cls-3" d="M58.64,195.6c-1.24-1.21-2.7-2.14-4.38-2.79-1.68-.64-3.45-.97-5.32-.97s-3.74.34-5.37,1.02c-1.63.68-3.04,1.65-4.23,2.9-1.19,1.25-2.11,2.73-2.76,4.44-.65,1.71-.98,3.59-.98,5.64s.32,3.91.97,5.63c.64,1.71,1.55,3.2,2.72,4.46s2.55,2.23,4.16,2.92c1.6.69,3.36,1.03,5.28,1.03,1.77,0,3.4-.3,4.89-.89,1.49-.59,2.8-1.43,3.93-2.52,1.13-1.09,2.04-2.38,2.74-3.89.7-1.5,1.13-3.16,1.29-4.98h-12.35v-3.12h15.86l.11,1.46c0,2.56-.4,4.9-1.2,7.03-.8,2.13-1.94,3.97-3.4,5.53-1.47,1.56-3.2,2.76-5.21,3.6s-4.21,1.27-6.63,1.27-4.75-.44-6.84-1.31c-2.09-.88-3.91-2.1-5.46-3.67-1.55-1.57-2.75-3.42-3.61-5.54-.85-2.12-1.28-4.43-1.28-6.93s.43-4.84,1.3-6.99c.87-2.14,2.08-4.01,3.64-5.59,1.56-1.59,3.39-2.82,5.5-3.69s4.41-1.31,6.9-1.31c2.35,0,4.59.4,6.7,1.21,2.12.81,4,1.97,5.65,3.48l-2.61,2.56Z"></path>
				<path class="cls-3" d="M85.47,222.71h-3.95v-14.4l-13.07-19.29h4.81l10.24,15.99,10.29-15.99h4.78l-13.09,19.34v14.35Z"></path>
				<path class="cls-3" d="M138.02,222.71h-3.95v-28.14l-11.25,22.48h-3.57l-11.21-22.35v28.01h-3.95v-33.69h5.1l11.86,23.88,11.81-23.88h5.17v33.69Z"></path>
				<path class="cls-3" d="M176.69,222.71h-4.18l-21.18-27.51v27.51h-3.95v-33.69h4.18l21.18,27.51v-27.51h3.95v33.69Z"></path>
				<path class="cls-3" d="M186.81,222.71h-4.16l13.84-33.69h4.29l13.81,33.69h-4.16l-3.66-9.1h-16.31l-3.66,9.1ZM191.86,210.11h13.52l-6.76-16.82-6.76,16.82Z"></path>
				<path class="cls-3" d="M218.98,219.43l1.91-3.03c.97.79,1.95,1.45,2.92,1.98.97.52,1.96.91,2.98,1.17,1.01.25,2.04.38,3.09.38,1.53,0,2.86-.25,4.01-.76,1.14-.51,2.04-1.22,2.68-2.12.64-.91.97-1.95.97-3.13,0-1.29-.36-2.35-1.09-3.2-.73-.85-1.67-1.57-2.82-2.17-1.15-.6-2.38-1.17-3.68-1.71-1.09-.46-2.18-.96-3.26-1.48-1.08-.52-2.05-1.13-2.93-1.83-.88-.7-1.58-1.54-2.1-2.53s-.79-2.18-.79-3.57c0-1.78.45-3.35,1.35-4.72.9-1.36,2.15-2.43,3.74-3.19,1.6-.76,3.43-1.15,5.51-1.15,1.41,0,2.82.18,4.25.55,1.42.37,2.8.9,4.13,1.61l-1.62,3.23c-1.05-.61-2.14-1.09-3.29-1.42-1.14-.33-2.27-.49-3.38-.49-1.32,0-2.47.22-3.47.66-1,.44-1.78,1.06-2.34,1.84-.56.79-.84,1.7-.84,2.75,0,1.17.34,2.15,1.02,2.94.68.79,1.56,1.48,2.65,2.06,1.08.58,2.23,1.13,3.45,1.67,1.15.51,2.29,1.04,3.43,1.61,1.13.56,2.16,1.22,3.08,1.98.92.76,1.66,1.66,2.21,2.71.55,1.05.83,2.31.83,3.8,0,1.9-.48,3.57-1.44,5-.96,1.43-2.3,2.54-4.03,3.34-1.73.79-3.75,1.19-6.08,1.19-2.04,0-3.98-.33-5.82-.99s-3.59-1.65-5.23-2.96Z"></path>
				<path class="cls-3" d="M248.89,222.71v-33.69h3.95v33.69h-3.95Z"></path>
				<path class="cls-3" d="M289.56,189.02v18.62c0,3.26-.57,6.08-1.7,8.43-1.13,2.36-2.75,4.17-4.86,5.42s-4.64,1.89-7.59,1.89-5.46-.63-7.57-1.89-3.73-3.07-4.86-5.42c-1.13-2.36-1.7-5.17-1.7-8.43v-18.62h3.95v18.31c0,2.65.4,4.91,1.21,6.78.81,1.87,1.97,3.3,3.49,4.29,1.52.99,3.34,1.48,5.47,1.48s3.97-.49,5.49-1.48c1.52-.99,2.68-2.42,3.49-4.29.81-1.87,1.21-4.13,1.21-6.78v-18.31h3.95Z"></path>
				<path class="cls-3" d="M331.93,222.71h-3.95v-28.14l-11.25,22.48h-3.57l-11.21-22.35v28.01h-3.95v-33.69h5.1l11.86,23.88,11.81-23.88h5.17v33.69Z"></path>
				<path class="cls-3" d="M58.6,272.71h-4.4l-8.04-13.7h-9.07v13.7h-3.95v-33.69h12.78c2.41,0,4.48.4,6.22,1.21s3.08,1.96,4.02,3.45,1.42,3.27,1.42,5.33c0,2.41-.64,4.43-1.92,6.06-1.28,1.63-3.07,2.76-5.38,3.39l8.33,14.24ZM37.08,255.51h8.58c2.44,0,4.36-.58,5.76-1.73,1.4-1.15,2.1-2.74,2.1-4.76s-.7-3.61-2.09-4.76c-1.39-1.15-3.32-1.73-5.77-1.73h-8.58v12.98Z"></path>
				<path class="cls-3" d="M65.24,272.71v-33.69h20.64v3.5h-16.69v11.32h15.77v3.5h-15.77v11.86h16.91v3.5h-20.87Z"></path>
				<path class="cls-3" d="M122.14,239.02v18.62c0,3.26-.57,6.08-1.7,8.43-1.13,2.36-2.75,4.17-4.86,5.42s-4.64,1.89-7.59,1.89-5.46-.63-7.57-1.89-3.73-3.07-4.86-5.42c-1.13-2.36-1.7-5.17-1.7-8.43v-18.62h3.95v18.31c0,2.65.4,4.91,1.21,6.78s1.97,3.3,3.49,4.29c1.52.99,3.34,1.48,5.47,1.48s3.97-.49,5.49-1.48c1.52-.99,2.68-2.42,3.49-4.29s1.21-4.13,1.21-6.78v-18.31h3.95Z"></path>
				<path class="cls-3" d="M142.66,272.71h-3.95v-30.19h-10.83v-3.5h25.61v3.5h-10.83v30.19Z"></path>
				<path class="cls-3" d="M159.23,272.71v-33.69h20.64v3.5h-16.69v11.32h15.77v3.5h-15.77v11.86h16.91v3.5h-20.87Z"></path>
				<path class="cls-3" d="M213.77,272.71h-4.4l-8.04-13.7h-9.07v13.7h-3.95v-33.69h12.78c2.41,0,4.48.4,6.22,1.21s3.08,1.96,4.02,3.45,1.42,3.27,1.42,5.33c0,2.41-.64,4.43-1.92,6.06-1.28,1.63-3.07,2.76-5.38,3.39l8.33,14.24ZM192.26,255.51h8.58c2.44,0,4.36-.58,5.76-1.73,1.4-1.15,2.1-2.74,2.1-4.76s-.7-3.61-2.09-4.76c-1.39-1.15-3.32-1.73-5.77-1.73h-8.58v12.98Z"></path>
				<path class="cls-3" d="M218.84,269.43l1.91-3.03c.97.79,1.95,1.45,2.92,1.98s1.96.91,2.98,1.17c1.01.25,2.04.38,3.09.38,1.53,0,2.86-.25,4.01-.76,1.14-.51,2.04-1.22,2.68-2.12.64-.91.97-1.95.97-3.13,0-1.29-.36-2.35-1.09-3.2-.73-.85-1.67-1.57-2.82-2.17s-2.38-1.17-3.68-1.71c-1.09-.46-2.18-.96-3.26-1.48s-2.05-1.13-2.93-1.83c-.88-.7-1.58-1.54-2.1-2.53s-.79-2.18-.79-3.57c0-1.78.45-3.35,1.35-4.72.9-1.36,2.15-2.43,3.74-3.19,1.6-.76,3.43-1.15,5.51-1.15,1.41,0,2.82.18,4.25.55,1.42.37,2.8.9,4.13,1.61l-1.62,3.23c-1.05-.61-2.14-1.09-3.29-1.42-1.14-.33-2.27-.49-3.38-.49-1.32,0-2.47.22-3.47.66-1,.44-1.78,1.06-2.34,1.84-.56.79-.84,1.7-.84,2.75,0,1.17.34,2.15,1.02,2.94.68.79,1.56,1.48,2.65,2.06,1.08.58,2.23,1.13,3.45,1.67,1.15.51,2.29,1.04,3.43,1.61,1.13.56,2.16,1.22,3.08,1.98.92.76,1.66,1.66,2.21,2.71s.83,2.31.83,3.8c0,1.9-.48,3.57-1.44,5-.96,1.43-2.3,2.54-4.03,3.33-1.73.79-3.75,1.19-6.08,1.19-2.04,0-3.98-.33-5.82-.99s-3.59-1.65-5.23-2.96Z"></path>
				<path class="cls-3" d="M252.7,272.71h-3.95v-33.69h3.95v15.32h18.8v-15.32h3.95v33.69h-3.95v-14.87h-18.8v14.87Z"></path>
				<path class="cls-3" d="M285.57,272.71h-4.16l13.84-33.69h4.29l13.81,33.69h-4.16l-3.66-9.1h-16.31l-3.66,9.1ZM290.63,260.11h13.52l-6.76-16.82-6.76,16.82Z"></path>
				<path class="cls-3" d="M344.84,245.6c-1.24-1.21-2.7-2.14-4.38-2.79-1.68-.64-3.45-.97-5.32-.97s-3.74.34-5.37,1.02c-1.63.68-3.04,1.65-4.23,2.9-1.19,1.25-2.11,2.73-2.76,4.44-.65,1.71-.98,3.59-.98,5.64s.32,3.91.97,5.63c.64,1.71,1.55,3.2,2.72,4.46s2.55,2.23,4.16,2.92,3.36,1.03,5.28,1.03c1.77,0,3.4-.3,4.89-.89,1.49-.59,2.8-1.43,3.93-2.52,1.13-1.09,2.04-2.38,2.74-3.89.7-1.5,1.13-3.16,1.29-4.97h-12.35v-3.12h15.86l.11,1.46c0,2.56-.4,4.9-1.2,7.03-.8,2.13-1.94,3.97-3.4,5.53s-3.2,2.76-5.21,3.6c-2.01.85-4.21,1.27-6.63,1.27s-4.75-.44-6.84-1.31c-2.09-.88-3.91-2.1-5.46-3.67-1.55-1.57-2.75-3.42-3.61-5.54-.85-2.12-1.28-4.43-1.28-6.93s.43-4.84,1.3-6.99,2.08-4.01,3.64-5.59,3.39-2.82,5.5-3.69,4.41-1.31,6.9-1.31c2.35,0,4.59.4,6.7,1.21,2.12.81,4,1.97,5.65,3.48l-2.61,2.56Z"></path>
				<path class="cls-3" d="M358.24,272.71v-33.69h20.64v3.5h-16.69v11.32h15.77v3.5h-15.77v11.86h16.91v3.5h-20.87Z"></path>
				<path class="cls-3" d="M416.62,272.71h-4.18l-21.18-27.51v27.51h-3.95v-33.69h4.18l21.18,27.51v-27.51h3.95v33.69Z"></path>
			</g>
			<path class="cls-1" d="M288.3,476.47c-.53-4.73-.15-9.47-.22-14.21-.07-4.41.08-8.83-.06-13.24-.06-1.98.55-2.51,2.52-2.51,17.5.07,34.99.04,52.49.04,22.33,0,44.66.03,66.98-.05,2.17,0,2.82.48,2.77,2.73-.18,9.07-.15,18.15-.2,27.22-41.43,0-82.85.01-124.28.02Z"></path>
			<path class="cls-1" d="M157.93,489.4c-.52-5.06-.13-10.14-.21-15.21-.03-1.71,1.35-1.14,2.21-1.14,7.91-.04,15.84-.3,23.74.05,9.28.41,18.14-.96,26.94-3.91,8.74-2.94,17.7-5.19,26.57-7.75.81-.31,1.65-.16,2.47-.16,13.38,0,26.76-.01,40.13,0,.81,0,1.66-.23,2.44.24-.02,9.29.31,18.59-.17,27.88-20.14-.02-40.29-.05-60.43-.05-21.23,0-42.45.03-63.68.05Z"></path>
			<path class="cls-1" d="M282.06,376.14c.45,5.4.08,10.8.2,16.21.02.96-.4,1.36-1.34,1.32-.58-.03-1.17,0-1.75,0-39.46,0-78.93-.02-118.39.06-2.51,0-3.32-.57-3.15-3.14.32-4.81-.21-9.64.27-14.45,17.74.02,35.47.05,53.21.05,23.65,0,47.29-.03,70.94-.05Z"></path>
			<path class="cls-1" d="M350.72,398.7c19.66,0,39.31.06,58.97-.07,2.65-.02,3.11.78,3.09,3.2-.12,12.4-.09,24.81-.02,37.21.01,1.89-.39,2.53-2.44,2.53-39.9-.07-79.79-.06-119.69,0-2.09,0-2.64-.58-2.62-2.64.09-12.4.11-24.81,0-37.21-.02-2.36.53-3.09,3-3.08,19.91.1,39.81.06,59.72.06Z"></path>
			<path class="cls-1" d="M350.72,363.45c19.74,0,39.47.04,59.21-.06,2.37-.01,2.87.72,2.84,2.93-.13,8.07-.15,16.15,0,24.22.05,2.44-.47,3.2-3.09,3.19-32.4-.1-64.79-.07-97.19-.07-7.33,0-14.66-.04-21.99.03-1.72.02-2.53-.26-2.5-2.28.11-8.57.11-17.15,0-25.72-.03-2.01.77-2.29,2.5-2.28,20.07.05,40.14.03,60.21.03Z"></path>
			<path class="cls-1" d="M282.19,413.56c.02,8.58-.02,17.15.12,25.73.03,1.99-.67,2.29-2.44,2.28-18.75-.06-37.49-.04-56.24-.04-21.08,0-42.16-.03-63.23.05-2.17,0-2.89-.47-2.77-2.73.2-3.82.14-7.66.02-11.49-.06-1.77.53-2.25,2.26-2.24,11.5.07,22.99-.05,34.49.07,4.72.05,8.94-1.79,13.31-3.02,9.12-2.57,18.2-5.3,27.29-7.99,1.61-.47,3.22-.7,4.91-.69,13.91.02,27.83-.01,41.74-.03.34-.02.45-.03.54.08Z"></path>
			<path class="cls-1" d="M281.69,408.57c-14.65-.02-29.31-.22-43.96.04-4.63.08-8.97,2.33-13.44,3.57-7.76,2.17-15.48,4.5-23.2,6.83-2.57.78-5.14,1.17-7.84,1.15-11.07-.07-22.15-.07-33.22.01-1.89.01-2.4-.53-2.36-2.39.12-5.41.15-10.82,0-16.23-.07-2.26.52-2.92,2.87-2.92,34.89.08,69.78.05,104.67.05,5,0,9.99.05,14.99-.03,1.6-.03,2.23.41,2.13,2.11-.16,2.57-.09,5.16-.12,7.73-.04.1-.16.06-.49.06Z"></path>
			<path class="cls-1" d="M236.21,456.42c-12.6,3.69-25.2,7.39-37.79,11.09-1.05.31-2.08.5-3.18.5-11.74-.02-23.48-.05-35.22.03-1.87.01-2.41-.48-2.36-2.36.13-5.57.14-11.15,0-16.73-.05-2.04.63-2.46,2.54-2.45,32.56.05,65.11.04,97.67.04,7.41,0,14.82.06,22.23-.04,1.78-.02,2.31.53,2.21,2.26-.14,2.41-.06,4.82-.08,7.24-.86.48-1.79.23-2.68.23-13.53.02-27.07,0-40.6.02-.91,0-1.83-.15-2.72.16Z"></path>
			<path class="cls-1" d="M151.74,446.52c-.01,6.92-.03,13.85-.04,20.77,0,0,.05.03.05.03-.88.79-1.99.72-3.07.72-39.45,0-78.91,0-118.36,0-1.08,0-2.19.06-3.03-.8,0-6.88,0-13.76,0-20.64,1.3-1.25,2.96-.89,4.5-.89,23.4-.02,46.79-.02,70.19-.02,15.15,0,30.31,0,45.46.01,1.47,0,3.03-.26,4.3.81Z"></path>
			<path class="cls-1" d="M89.54,398.97c19.82,0,39.63.04,59.45-.06,2.36-.01,2.93.71,2.86,2.94-.15,5.24-.13,10.49,0,15.73.05,1.95-.5,2.53-2.5,2.52-15.9-.08-31.8-.05-47.71-.05-23.81,0-47.62-.04-71.43.06-2.49.01-3.05-.7-2.97-3.06.18-5.07.17-10.15,0-15.23-.07-2.24.5-2.94,2.85-2.92,19.81.1,39.63.06,59.45.06Z"></path>
			<path class="cls-1" d="M89.45,393.59c-19.82,0-39.64-.04-59.45.05-2.2,0-2.87-.53-2.76-2.76.19-3.99.17-7.99,0-11.98-.08-2.03.62-2.48,2.54-2.48,19.4.06,38.8.04,58.2.04,20.32,0,40.64.04,60.95-.05,2.28,0,3.02.58,2.91,2.9-.19,3.9-.18,7.83,0,11.73.1,2.16-.68,2.59-2.69,2.59-19.9-.07-39.8-.04-59.7-.04Z"></path>
			<path class="cls-1" d="M27.28,425.55c.83-.04,1.66-.11,2.49-.11,39.65,0,79.29.02,118.94-.06,2.56,0,3.28.63,3.15,3.06-.23,4.15-.09,8.32-.11,12.49-.9.77-2.02.66-3.09.66-39.44,0-78.88.01-118.33,0-1.07,0-2.19.11-3.05-.74,0-5.09,0-10.19,0-15.28Z"></path>
			<path class="cls-1" d="M151.74,473.05c.02,4.4-.1,8.81.11,13.2.11,2.35-.68,2.87-2.93,2.87-35.55-.07-71.09-.04-106.64-.05-4.99,0-9.98-.07-14.98-.11,0-5.27-.01-10.55-.02-15.82,1.31-1.26,2.97-.9,4.51-.91,24.39-.02,48.79-.02,73.18-.02,14.15,0,28.31,0,42.46.01,1.47,0,3.03-.27,4.3.82Z"></path>
			<g>
				<path class="cls-1" d="M54.16,520.62c-1.24-1.21-2.7-2.14-4.38-2.79s-3.45-.97-5.32-.97-3.74.34-5.37,1.02c-1.63.68-3.04,1.65-4.23,2.9-1.19,1.25-2.11,2.73-2.76,4.44-.65,1.71-.98,3.59-.98,5.64s.32,3.91.97,5.63c.64,1.71,1.55,3.2,2.72,4.46s2.55,2.23,4.16,2.92,3.36,1.03,5.28,1.03c1.77,0,3.4-.3,4.89-.89,1.49-.59,2.8-1.43,3.93-2.52,1.13-1.08,2.04-2.38,2.74-3.89.7-1.5,1.13-3.16,1.29-4.97h-12.35v-3.12h15.86l.11,1.46c0,2.56-.4,4.9-1.2,7.03-.8,2.13-1.94,3.97-3.4,5.53s-3.2,2.76-5.21,3.6-4.21,1.27-6.63,1.27-4.75-.44-6.84-1.31c-2.09-.88-3.91-2.1-5.46-3.67-1.55-1.57-2.75-3.42-3.61-5.54-.85-2.12-1.28-4.43-1.28-6.93s.43-4.84,1.3-6.99,2.08-4.01,3.64-5.59,3.39-2.82,5.5-3.7,4.41-1.31,6.9-1.31c2.35,0,4.59.4,6.7,1.21,2.12.81,4,1.97,5.65,3.48l-2.61,2.56Z"></path>
				<path class="cls-1" d="M80.99,547.73h-3.95v-14.4l-13.07-19.29h4.81l10.24,15.99,10.29-15.99h4.78l-13.09,19.34v14.35Z"></path>
				<path class="cls-1" d="M133.54,547.73h-3.95v-28.14l-11.25,22.48h-3.57l-11.21-22.35v28.01h-3.95v-33.69h5.1l11.86,23.88,11.81-23.88h5.17v33.69Z"></path>
				<path class="cls-1" d="M172.2,547.73h-4.18l-21.18-27.51v27.51h-3.95v-33.69h4.18l21.18,27.51v-27.51h3.95v33.69Z"></path>
				<path class="cls-1" d="M182.32,547.73h-4.16l13.84-33.69h4.29l13.81,33.69h-4.16l-3.66-9.1h-16.31l-3.66,9.1ZM187.38,535.13h13.52l-6.76-16.82-6.76,16.82Z"></path>
				<path class="cls-1" d="M214.5,544.45l1.91-3.03c.97.79,1.95,1.45,2.92,1.98s1.96.91,2.98,1.17c1.01.25,2.04.38,3.09.38,1.53,0,2.86-.25,4.01-.76,1.14-.51,2.04-1.22,2.68-2.12.64-.91.97-1.95.97-3.13,0-1.29-.36-2.35-1.09-3.2-.73-.85-1.67-1.57-2.82-2.17s-2.38-1.17-3.68-1.71c-1.09-.46-2.18-.96-3.26-1.48s-2.05-1.13-2.93-1.83c-.88-.7-1.58-1.54-2.1-2.53s-.79-2.18-.79-3.57c0-1.78.45-3.35,1.35-4.72s2.15-2.43,3.74-3.19c1.6-.76,3.43-1.15,5.51-1.15,1.41,0,2.82.18,4.25.55,1.42.37,2.8.9,4.13,1.61l-1.62,3.23c-1.05-.61-2.14-1.09-3.29-1.42-1.14-.33-2.27-.49-3.38-.49-1.32,0-2.47.22-3.47.66-1,.44-1.78,1.06-2.34,1.84-.56.79-.84,1.7-.84,2.75,0,1.17.34,2.15,1.02,2.94.68.79,1.56,1.48,2.65,2.05,1.08.58,2.23,1.13,3.45,1.67,1.15.51,2.29,1.04,3.43,1.61,1.13.56,2.16,1.22,3.08,1.98.92.76,1.66,1.66,2.21,2.71s.83,2.31.83,3.8c0,1.9-.48,3.57-1.44,5-.96,1.43-2.3,2.54-4.03,3.34-1.73.79-3.75,1.19-6.08,1.19-2.04,0-3.98-.33-5.82-.99-1.84-.66-3.59-1.65-5.23-2.96Z"></path>
				<path class="cls-1" d="M244.41,547.73v-33.69h3.95v33.69h-3.95Z"></path>
				<path class="cls-1" d="M285.07,514.04v18.62c0,3.26-.57,6.08-1.7,8.43-1.13,2.36-2.75,4.17-4.86,5.42s-4.64,1.89-7.59,1.89-5.46-.63-7.57-1.89-3.73-3.07-4.86-5.42c-1.13-2.36-1.7-5.17-1.7-8.43v-18.62h3.95v18.31c0,2.65.4,4.91,1.21,6.78s1.97,3.3,3.49,4.29c1.52.99,3.34,1.48,5.47,1.48s3.97-.49,5.49-1.48c1.52-.99,2.68-2.42,3.49-4.29s1.21-4.13,1.21-6.78v-18.31h3.95Z"></path>
				<path class="cls-1" d="M327.45,547.73h-3.95v-28.14l-11.25,22.48h-3.57l-11.21-22.35v28.01h-3.95v-33.69h5.1l11.86,23.88,11.81-23.88h5.17v33.69Z"></path>
				<path class="cls-1" d="M54.11,597.73h-4.4l-8.04-13.7h-9.07v13.7h-3.95v-33.69h12.78c2.41,0,4.48.4,6.22,1.21s3.08,1.96,4.02,3.45c.94,1.49,1.42,3.27,1.42,5.33,0,2.41-.64,4.43-1.92,6.06-1.28,1.63-3.07,2.76-5.38,3.39l8.33,14.24ZM32.6,580.52h8.58c2.44,0,4.36-.58,5.76-1.73,1.4-1.15,2.1-2.74,2.1-4.76s-.7-3.61-2.09-4.76c-1.39-1.15-3.32-1.73-5.77-1.73h-8.58v12.98Z"></path>
				<path class="cls-1" d="M60.75,597.73v-33.69h20.64v3.5h-16.69v11.32h15.77v3.5h-15.77v11.86h16.91v3.5h-20.87Z"></path>
				<path class="cls-1" d="M117.66,564.04v18.62c0,3.26-.57,6.08-1.7,8.43-1.13,2.36-2.75,4.17-4.86,5.42s-4.64,1.89-7.59,1.89-5.46-.63-7.57-1.89-3.73-3.07-4.86-5.42c-1.13-2.36-1.7-5.17-1.7-8.43v-18.62h3.95v18.31c0,2.65.4,4.91,1.21,6.78s1.97,3.3,3.49,4.29c1.52.99,3.34,1.48,5.47,1.48s3.97-.49,5.49-1.48c1.52-.99,2.68-2.42,3.49-4.29s1.21-4.13,1.21-6.78v-18.31h3.95Z"></path>
				<path class="cls-1" d="M138.18,597.73h-3.95v-30.19h-10.83v-3.5h25.61v3.5h-10.83v30.19Z"></path>
				<path class="cls-1" d="M154.74,597.73v-33.69h20.64v3.5h-16.69v11.32h15.77v3.5h-15.77v11.86h16.91v3.5h-20.87Z"></path>
				<path class="cls-1" d="M209.29,597.73h-4.4l-8.04-13.7h-9.07v13.7h-3.95v-33.69h12.78c2.41,0,4.48.4,6.22,1.21s3.08,1.96,4.02,3.45c.94,1.49,1.42,3.27,1.42,5.33,0,2.41-.64,4.43-1.92,6.06-1.28,1.63-3.07,2.76-5.38,3.39l8.33,14.24ZM187.77,580.52h8.58c2.44,0,4.36-.58,5.76-1.73,1.4-1.15,2.1-2.74,2.1-4.76s-.7-3.61-2.09-4.76c-1.39-1.15-3.32-1.73-5.77-1.73h-8.58v12.98Z"></path>
				<path class="cls-1" d="M214.35,594.45l1.91-3.03c.97.79,1.95,1.45,2.92,1.98s1.96.91,2.98,1.17c1.01.25,2.04.38,3.09.38,1.53,0,2.86-.25,4.01-.76,1.14-.51,2.04-1.22,2.68-2.12.64-.91.97-1.95.97-3.13,0-1.29-.36-2.35-1.09-3.2-.73-.85-1.67-1.57-2.82-2.17s-2.38-1.17-3.68-1.71c-1.09-.46-2.18-.96-3.26-1.48s-2.05-1.13-2.93-1.83c-.88-.7-1.58-1.54-2.1-2.53s-.79-2.18-.79-3.57c0-1.78.45-3.35,1.35-4.72.9-1.36,2.15-2.43,3.74-3.19,1.6-.76,3.43-1.15,5.51-1.15,1.41,0,2.82.18,4.25.55s2.8.9,4.13,1.61l-1.62,3.23c-1.05-.61-2.14-1.08-3.29-1.42-1.14-.33-2.27-.49-3.38-.49-1.32,0-2.47.22-3.47.66-1,.44-1.78,1.06-2.34,1.84-.56.79-.84,1.7-.84,2.75,0,1.17.34,2.15,1.02,2.94.68.79,1.56,1.48,2.65,2.06,1.08.58,2.23,1.13,3.45,1.67,1.15.51,2.29,1.04,3.43,1.61,1.13.56,2.16,1.22,3.08,1.98.92.76,1.66,1.66,2.21,2.71s.83,2.31.83,3.8c0,1.9-.48,3.57-1.44,5-.96,1.43-2.3,2.54-4.03,3.33-1.73.79-3.75,1.19-6.08,1.19-2.04,0-3.98-.33-5.82-.99s-3.59-1.65-5.23-2.96Z"></path>
				<path class="cls-1" d="M248.22,597.73h-3.95v-33.69h3.95v15.32h18.8v-15.32h3.95v33.69h-3.95v-14.87h-18.8v14.87Z"></path>
				<path class="cls-1" d="M281.09,597.73h-4.16l13.84-33.69h4.29l13.81,33.69h-4.16l-3.66-9.1h-16.31l-3.66,9.1ZM286.14,585.13h13.52l-6.76-16.82-6.76,16.82Z"></path>
				<path class="cls-1" d="M340.35,570.62c-1.24-1.21-2.7-2.14-4.38-2.79-1.68-.64-3.45-.97-5.32-.97s-3.74.34-5.37,1.02-3.04,1.65-4.23,2.9c-1.19,1.25-2.11,2.73-2.76,4.44-.65,1.71-.98,3.59-.98,5.64s.32,3.91.97,5.63c.64,1.71,1.55,3.2,2.72,4.46s2.55,2.23,4.16,2.92,3.36,1.03,5.28,1.03c1.77,0,3.4-.3,4.89-.89,1.49-.59,2.8-1.43,3.93-2.52,1.13-1.09,2.04-2.38,2.74-3.89.7-1.5,1.13-3.16,1.29-4.97h-12.35v-3.12h15.86l.11,1.46c0,2.56-.4,4.9-1.2,7.03-.8,2.13-1.94,3.97-3.4,5.53s-3.2,2.76-5.21,3.6c-2.01.85-4.21,1.27-6.63,1.27s-4.75-.44-6.84-1.31c-2.09-.88-3.91-2.1-5.46-3.67-1.55-1.57-2.75-3.42-3.61-5.54-.85-2.12-1.28-4.43-1.28-6.93s.43-4.84,1.3-6.99,2.08-4.01,3.64-5.59,3.39-2.82,5.5-3.69,4.41-1.31,6.9-1.31c2.35,0,4.59.4,6.7,1.21,2.12.81,4,1.97,5.65,3.48l-2.61,2.56Z"></path>
				<path class="cls-1" d="M353.75,597.73v-33.69h20.64v3.5h-16.69v11.32h15.77v3.5h-15.77v11.86h16.91v3.5h-20.87Z"></path>
				<path class="cls-1" d="M412.14,597.73h-4.18l-21.18-27.51v27.51h-3.95v-33.69h4.18l21.18,27.51v-27.51h3.95v33.69Z"></path>
			</g>
		</g>
	</g>
</svg>