<?xml version="1.0" encoding="utf-8"?>
<!-- Generator: Adobe Adobe Illustrator 24.2.0, SVG Export Plug-In . SVG Version: 6.00 Build 0)  -->
<svg version="1.1" id="Layer_1" xmlns="http://www.w3.org/2000/svg" xmlns:xlink="http://www.w3.org/1999/xlink" x="0px" y="0px"
	 width="399px" height="400px" viewBox="0 0 399 400" style="enable-background:new 0 0 399 400;" xml:space="preserve">
<style type="text/css">
	.st0{display:none;fill:#474747;}
	.st1{font-family:'Aldrich-Regular';}
	.st2{font-size:54.5793px;}
	.st3{display:none;fill:#EAEAEC;}
	.st4{font-size:42px;}
	.st5{fill:#EAEAEC;}
	.st6{fill:#71C1EF;}
	.st7{fill:#EAEAEC;}
	.st8{fill:none;stroke:#FFFFFF;stroke-width:9;stroke-miterlimit:10;}
	.st9{fill:#FFFFFF;stroke:#FFFFFF;stroke-width:9;stroke-miterlimit:10;}
	.st10{fill:#D2D1D1;}
</style>
<text transform="matrix(1 0 0 1 150.3277 196.9646)" class="st0 st1 st2">Byteflow</text>
<text transform="matrix(1 0 0 1 151.3741 233.0641)" class="st3 st1 st4">Reutershagen</text>
<ellipse class="st6" cx="204.94" cy="202.61" rx="164.01" ry="161.39"/>
<ellipse class="st8" cx="204.94" cy="132.93" rx="16.5" ry="16.23"/>
<ellipse class="st8" cx="204.94" cy="245.62" rx="16.5" ry="16.23"/>
<ellipse class="st8" cx="262.8" cy="220" rx="14.56" ry="14.32"/>
<ellipse class="st8" cx="147.36" cy="220" rx="14.56" ry="14.32"/>
<ellipse class="st8" cx="334.57" cy="200.26" rx="16.5" ry="16.23"/>
<ellipse class="st8" cx="77.55" cy="200.97" rx="16.5" ry="16.23"/>
<line class="st8" x1="204.94" y1="151.58" x2="204.94" y2="229.38"/>
<line class="st8" x1="204.94" y1="264.9" x2="204.94" y2="364.96"/>
<line class="st8" x1="262.65" y1="234.32" x2="262.65" y2="277.27"/>
<line class="st9" x1="147.36" y1="234.32" x2="147.36" y2="277.26"/>
<line class="st9" x1="233.64" y1="306.89" x2="233.64" y2="364.96"/>
<line class="st9" x1="176.38" y1="306.89" x2="176.38" y2="364.96"/>
<path class="st9" d="M233.64,306.89c0-12.71,29.02-16.21,29.02-29.62"/>
<path class="st9" d="M176.38,306.89c0-12.71-29.02-16.21-29.02-29.62"/>
<path class="st8" d="M78.19,219.39c0,44.76,13.74,129.27,98.19,139.47"/>
<path class="st8" d="M334.57,219.39c0,44.76-13.74,129.27-98.19,139.47"/>
<g>
	<g>
		<path class="st5" d="M103.32,63.95c20.95-14.81,43.85-24.49,68.8-29.13c31.46-5.86,62.32-3.5,92.5,7.33
			c15.78,5.66,30.38,13.42,43.96,23.25c7.77,5.62,14.75,12.05,21.6,18.71c8.49,8.25,15.36,17.71,21.92,27.49
			c11.17,16.66,18.07,35.03,22.81,54.4c5.37,21.96,5.9,44.04,1.78,66.14c-3.77,20.26-10.39,39.65-21.19,57.33
			c-6.3,10.33-13.23,20.27-21.61,29.09c-12.82,13.5-27.2,25.06-43.54,34.05c-21.06,11.58-43.56,18.67-67.51,21.08
			c-29.53,2.97-58.01-1.25-85.45-12.55c-15.71-6.47-30.07-15.12-43.31-25.81c-8.2-6.62-15.43-14.08-22.41-21.91
			c-8.98-10.08-16.01-21.37-22.26-33.26c-15.52-29.53-20.73-61.02-17.75-94c1.72-19.06,6.63-37.37,14.89-54.63
			c5.93-12.39,12.79-24.38,21.76-34.86C74.88,89,82.09,81.83,89.39,74.84C93.57,70.84,98.52,67.65,103.32,63.95z M106.1,75.25
			c-5.33,4.5-10.87,8.78-15.94,13.56c-8.5,8.01-15.67,17.22-22.21,26.84c-9.9,14.58-16.74,30.69-21.18,47.64
			c-7.56,28.9-7.15,57.78,2.06,86.39c5.2,16.16,12.03,31.47,22.21,45.2c6.59,8.9,13.45,17.48,21.73,24.93
			c7.2,6.47,14.65,12.54,22.82,17.76c13.83,8.84,28.62,15.43,44.39,19.97c21.12,6.09,42.6,7.5,64.32,5.08
			c23.82-2.66,46.02-10.42,66.52-22.82c16.78-10.15,31.17-23.11,43.42-38.43c8.78-10.98,15.96-23.05,21.22-35.97
			c17.68-43.48,17.34-86.81-2.53-129.67c-10.36-22.35-25.17-41.19-44.41-56.57c-6.92-5.53-14.1-10.62-21.83-14.99
			c-13.99-7.89-28.74-13.71-44.38-17.33c-29.99-6.94-59.62-5.53-88.87,3.87C136.47,56.18,120.88,64.42,106.1,75.25z"/>
		<path class="st7" d="M20.23,278.31c-7.34-17.14-12.16-34.7-14.3-52.96c-0.24-2.03,0.01-4.16,0.31-6.21
			c0.27-1.82,1.33-3.23,3.36-3.53c1.79-0.27,4.44,0.96,5.23,2.77c0.78,1.79,1.39,3.72,1.67,5.64c1.55,10.61,3.46,21.15,6.85,31.33
			c5.61,16.84,12.75,33.01,22.81,47.7c6.64,9.69,13.81,19.04,22.2,27.32c15.08,14.89,31.92,27.36,51.04,36.71
			c19.31,9.45,39.56,15.6,60.88,18.25c20.25,2.53,40.4,2.04,60.42-2.04c7.17-1.46,14.3-3.19,21.42-4.88
			c2.01-0.48,3.84-0.52,5.68,0.6c2.65,1.6,3.24,4.51,1.09,6.7c-0.94,0.96-2.19,1.71-3.43,2.25c-7.75,3.36-16,4.85-24.24,6.37
			c-12.28,2.26-24.67,3.45-37.14,3.42c-14.69-0.04-29.26-1.6-43.63-4.81c-15.39-3.44-30.19-8.54-44.4-15.42
			c-16.22-7.86-31.08-17.69-44.67-29.55c-7.92-6.91-15.03-14.51-21.89-22.44c-8.74-10.1-15.84-21.24-22.11-32.96
			C24.92,287.95,22.68,283.22,20.23,278.31z"/>
		<path class="st5" d="M328.77,60.94c-12.64-11.17-26.5-20.04-41.45-27.28c-1.74-0.84-3.37-2.07-4.8-3.39
			c-1.78-1.64-1.91-3.58-0.8-5.71c0.76-1.46,2.77-2.44,4.83-2c2.04,0.44,4.1,0.99,5.98,1.86c11.42,5.29,22.15,11.71,32.29,19.2
			c11.47,8.47,21.87,18.1,31.16,28.85c5.76,6.67,10.81,13.96,15.96,21.14c6.53,9.11,11.7,19,16.05,29.32
			c0.95,2.24,1.79,4.56,2.31,6.93c0.64,2.92-0.7,5.03-3.41,6.11c-1.99,0.79-4.54-0.17-5.98-2.41c-0.68-1.07-1.13-2.29-1.65-3.46
			c-6.18-13.84-13.21-27.25-22.46-39.29C348.52,80.02,339.7,69.64,328.77,60.94z"/>
		<path class="st7" d="M206.66,5.59c1.87,3.56,1.15,6.18-2.34,7.36c-2.94,0.99-6.08,1.6-9.18,1.83
			c-13.01,0.96-25.89,2.65-38.54,5.93c-14,3.64-27.46,8.7-40.32,15.35c-2.56,1.32-5.35,2.22-8.04,3.27
			c-0.53,0.21-1.13,0.27-1.71,0.34c-2.24,0.26-4.2-0.67-4.97-2.42c-0.83-1.88,0.02-3.51,1.28-4.73c1.74-1.68,3.53-3.53,5.66-4.55
			c8.49-4.05,16.96-8.2,25.73-11.57c13.81-5.32,28.17-8.79,42.87-10.67c8.18-1.04,16.37-2.19,24.66-1.32
			C203.35,4.58,204.9,5.08,206.66,5.59z"/>
	</g>
</g>
</svg>
